HIERARCHY
ROOT RootJoint
{
    OFFSET   0.000000   0.000000   0.000000
    CHANNELS 6 Xposition Yposition Zposition Xrotation Yrotation Zrotation
    JOINT pelvis_lowerback
    {
        OFFSET   0.000000   0.093605   0.000000
        CHANNELS 3 Xrotation Yrotation Zrotation
        JOINT lowerback_torso
        {
            OFFSET   0.000000   0.100000   0.000000
            CHANNELS 3 Xrotation Yrotation Zrotation
            JOINT torso_head
            {
                OFFSET   0.000000   0.282350   0.000000
                CHANNELS 3 Xrotation Yrotation Zrotation
                End Site
                {
                    OFFSET   0.000000   0.192650   0.000000
                }
            }
            JOINT rTorso_Clavicle
            {
                OFFSET  -0.001000   0.157500   0.000000
                CHANNELS 3 Xrotation Yrotation Zrotation
                JOINT rShoulder
                {
                    OFFSET  -0.117647   0.000000   0.000000
                    CHANNELS 3 Xrotation Yrotation Zrotation
                    JOINT rElbow
                    {
                        OFFSET  -0.245000   0.000000   0.000000
                        CHANNELS 3 Xrotation Yrotation Zrotation
                        JOINT rWrist
                        {
                            OFFSET  -0.240000   0.000000   0.000000
                            CHANNELS 3 Xrotation Yrotation Zrotation
                            End Site
                            {
                                OFFSET  -0.116353  -0.002500   0.000000
                            }
                        }
                    }
                }
            }
            JOINT lTorso_Clavicle
            {
                OFFSET   0.001000   0.157500   0.000000
                CHANNELS 3 Xrotation Yrotation Zrotation
                JOINT lShoulder
                {
                    OFFSET   0.117647   0.000000   0.000000
                    CHANNELS 3 Xrotation Yrotation Zrotation
                    JOINT lElbow
                    {
                        OFFSET   0.245000   0.000000   0.000000
                        CHANNELS 3 Xrotation Yrotation Zrotation
                        JOINT lWrist
                        {
                            OFFSET   0.240000   0.000000   0.000000
                            CHANNELS 3 Xrotation Yrotation Zrotation
                            End Site
                            {
                                OFFSET   0.116353  -0.002500   0.000000
                            }
                        }
                    }
                }
            }
        }
    }
    JOINT rHip
    {
        OFFSET  -0.100000  -0.051395   0.000000
        CHANNELS 3 Xrotation Yrotation Zrotation
        JOINT rKnee
        {
            OFFSET   0.000000  -0.410000   0.000000
            CHANNELS 3 Xrotation Yrotation Zrotation
            JOINT rAnkle
            {
                OFFSET   0.000000  -0.390000   0.000000
                CHANNELS 3 Xrotation Yrotation Zrotation
                JOINT rToeJoint
                {
                    OFFSET   0.000000  -0.050000   0.130000
                    CHANNELS 3 Xrotation Yrotation Zrotation
                    End Site
                    {
                        OFFSET  -0.010000   0.002000   0.060000
                    }
                }
            }
        }
    }
    JOINT lHip
    {
        OFFSET   0.100000  -0.051395   0.000000
        CHANNELS 3 Xrotation Yrotation Zrotation
        JOINT lKnee
        {
            OFFSET   0.000000  -0.410000   0.000000
            CHANNELS 3 Xrotation Yrotation Zrotation
            JOINT lAnkle
            {
                OFFSET   0.000000  -0.390000   0.000000
                CHANNELS 3 Xrotation Yrotation Zrotation
                JOINT lToeJoint
                {
                    OFFSET   0.000000  -0.050000   0.130000
                    CHANNELS 3 Xrotation Yrotation Zrotation
                    End Site
                    {
                        OFFSET   0.010000   0.002000   0.060000
                    }
                }
            }
        }
    }
}
MOTION
Frames: 11
Frame Time:   0.008333
 -2.376719   0.925631   3.975860   0.000000   0.000000   0.000000   0.000000   0.000000   0.000000   0.000000   0.000000   0.000000   0.000000   0.000000   0.000000   0.000000   0.000000   0.000000   0.000000   0.000000   0.000000   0.000000   0.000000   0.000000   0.000000   0.000000   0.000000   0.000000   0.000000   0.000000   0.000000   0.000000   0.000000   0.000000   0.000000   0.000000   0.000000   0.000000   0.000000   0.000000   0.000000   0.000000   0.000000   0.000000   0.000000   0.000000   0.000000   0.000000   0.000000   0.000000   0.000000   0.000000   0.000000   0.000000   0.000000   0.000000   0.000000   0.000000   0.000000   0.000000   0.000000   0.000000   0.000000
 -2.376470   0.925954   3.974943  -0.328026   0.065466   0.073712   0.595100   0.018248  -0.042224   0.222097  -0.130313  -0.007808  -0.257853   0.102987  -0.033556   0.223285  -0.367456  -0.119729   0.468790  -0.102622   2.348328   0.035967   1.816354  -0.019135   0.124278  -0.494431  -2.434810   0.253718   0.404111   0.010940   0.858183   0.251363  -2.271827   0.038638  -1.956370   0.027791   0.134893   0.435135   2.390523  -0.259039   0.005199  -0.239305   1.714480   0.002494   0.001002  -1.324228  -0.275378  -0.060824  -0.069719  -0.000137   0.000124  -0.238223  -0.306874   0.014760   1.401630  -0.001136  -0.002937  -0.938188   0.000619   0.172542   0.254886  -0.000581  -0.000535
 -2.376149   0.926538   3.973812  -0.741852   0.141571   0.154525   1.272320   0.032156  -0.072768   0.595337  -0.262679  -0.015194  -0.451584   0.201170  -0.065013   0.442248  -0.703161   0.389531   0.930793  -0.142115   5.195621   0.082102   3.568089  -0.035733   0.291484  -0.491947  -4.206305   0.506601   0.770979  -0.616675   1.710275   0.422478  -5.057195   0.088504  -3.839310   0.051165   0.328551   0.356079   4.114932  -0.465170   0.007085  -0.604875   3.526058   0.006579   0.001686  -2.554905  -0.536323  -0.125435  -0.163961  -0.000397   0.000252  -0.461541  -0.605831   0.112864   2.865824  -0.003431  -0.005067  -1.809104  -0.002732   0.333329   0.470821  -0.001120  -0.000845
 -2.375800   0.927034   3.972599  -1.146133   0.212636   0.230589   1.959756   0.045687  -0.092115   1.007267  -0.387265  -0.016085  -0.612836   0.293026  -0.092471   0.649950  -0.976017   1.298627   1.383150  -0.125656   8.364861   0.127342   5.215479  -0.048150   0.465178  -0.339816  -5.265644   0.746487   1.070216  -1.642343   2.553129   0.515016  -8.172568   0.137503  -5.609192   0.068530   0.529630   0.124608   5.123473  -0.651344   0.007787  -1.056872   5.245385   0.011015   0.001687  -3.701808  -0.780266  -0.191895  -0.248559  -0.000646   0.000336  -0.701001  -0.883092   0.294630   4.240642  -0.006191  -0.006212  -2.621400  -0.007018   0.483747   0.666359  -0.001617  -0.001013
 -2.375451   0.927190   3.971396  -1.519015   0.271310   0.300409   2.636844   0.061317  -0.104666   1.420720  -0.501261  -0.013338  -0.755291   0.378909  -0.115876   0.845143  -1.190322   2.446846   1.826172  -0.056311  11.753082   0.166710   6.761116  -0.056719   0.637458  -0.126378  -5.794273   0.971416   1.309345  -2.908379   3.380499   0.530900 -11.481420   0.179975  -7.269282   0.080494   0.728587  -0.168592   5.588964  -0.826013   0.008824  -1.572690   6.850601   0.015149   0.001070  -4.773127  -1.007952  -0.259218  -0.331690  -0.000892   0.000404  -0.957178  -1.141237   0.548539   5.511267  -0.008958  -0.006668  -3.380757  -0.011894   0.624595   0.838648  -0.002023  -0.001081
 -2.375158   0.926808   3.970275  -1.857084   0.318872   0.366821   3.292200   0.080673  -0.120362   1.821449  -0.602955  -0.022709  -0.883041   0.458934  -0.132385   1.026591  -1.359820   3.732245   2.259178   0.057427  15.294316   0.198082   8.208687  -0.061964   0.804497   0.114061  -5.950027   1.181783   1.504919  -4.349314   4.151690   0.478951 -14.760794   0.212573  -8.824041   0.087404   0.920538  -0.489816   5.607336  -0.987674   0.011105  -2.134531   8.346727   0.018627   0.000077  -5.774242  -1.220293  -0.326722  -0.414035  -0.001121   0.000459  -1.223117  -1.383382   0.862542   6.684854  -0.011499  -0.006630  -4.090723  -0.017346   0.756411   0.990184  -0.002328  -0.001081
 -2.374944   0.925737   3.969282  -2.161651   0.359241   0.429764   3.918071   0.103645  -0.143750   2.202163  -0.693137  -0.044671  -0.997938   0.533515  -0.146296   1.193949  -1.498611   5.081162   2.680946   0.205949  18.935719   0.221014   9.562069  -0.064423   0.963502   0.359978  -5.854832   1.377158   1.670937  -5.870458   4.867251   0.375629 -17.947388   0.234920 -10.278214   0.090227   1.101752  -0.818286   5.335974  -1.133504   0.015095  -2.726857   9.742659   0.021332  -0.001062  -6.709650  -1.418082  -0.393772  -0.494213  -0.001318   0.000499  -1.491862  -1.611915   1.226088   7.770944  -0.013672  -0.006235  -4.754326  -0.023243   0.879774   1.124178  -0.002538  -0.001035
 -2.374693   0.923300   3.968080  -2.314386   0.317736   0.466368   4.374769   0.201224  -0.134147   2.625424  -0.735631  -0.053295  -1.166913   0.493017  -0.169736   1.475976  -1.629528   5.927301   3.255381   0.493180  22.302173   0.234348  10.985674  -0.070847   1.081425   0.558000  -4.751519   1.670752   1.842633  -6.652411   5.515916   0.097869 -21.228870   0.249940 -11.856127   0.094556   1.212934  -1.121682   4.145167  -1.565579  -0.129705  -3.254588  11.339923   0.023229  -0.005624  -7.444688  -1.755740  -0.265343  -0.489373  -0.001039   0.000374  -1.896552  -1.771204   1.557934   8.699199  -0.014320  -0.005831  -5.354394   0.033389   1.027400   1.117671  -0.002000  -0.000822
 -2.374423   0.919713   3.966887  -2.452759   0.274683   0.492984   4.824844   0.300215  -0.111806   3.033744  -0.766179  -0.049389  -1.323041   0.451896  -0.190835   1.729707  -1.730027   6.537875   3.767589   0.802957  25.321207   0.235468  12.327890  -0.073727   1.210023   0.826856  -3.722329   1.936672   1.989751  -7.200813   6.099847  -0.200224 -24.176281   0.251254 -13.343854   0.095059   1.325954  -1.514654   3.003225  -1.989744  -0.274656  -3.729995  12.850752   0.023614  -0.009168  -8.125416  -2.075389  -0.149899  -0.460162  -0.000746   0.000154  -2.297203  -1.922377   1.846489   9.537983  -0.014131  -0.005365  -5.915562   0.084823   1.165716   1.111796  -0.001575  -0.000652
 -2.374143   0.915091   3.965761  -2.579355   0.237561   0.513490   5.259251   0.397171  -0.082162   3.423913  -0.789487  -0.036633  -1.465254   0.413479  -0.209237   1.958434  -1.820100   6.987646   4.224792   1.112773  28.051023   0.228667  13.584205  -0.073742   1.333546   1.109281  -2.895612   2.179353   2.128723  -7.589750   6.627290  -0.495043 -26.837272   0.243590 -14.733856   0.092526   1.430835  -1.910569   2.063356  -2.388163  -0.407949  -4.157910  14.259265   0.022937  -0.011505  -8.760217  -2.374749  -0.045951  -0.430720  -0.000520  -0.000015  -2.689812  -2.065423   2.092824  10.308599  -0.013435  -0.004853  -6.439755   0.130938   1.294964   1.107563  -0.001245  -0.000518
 -2.373866   0.914352   3.964590  -2.854910   0.333850   0.778395   5.850509   0.435342  -0.239358   3.883170  -0.854139  -0.094113  -1.597488   0.375600  -0.232294   2.152898  -1.863269   7.638828   4.622303   1.441115  30.657059   0.221033  14.748607  -0.073087   1.445329   1.325903  -2.281479   2.367963   2.187161  -8.126866   7.079378  -0.829360 -29.329879   0.234870 -16.025063   0.088953   1.525382  -2.231728   1.384106  -2.824725  -0.376705  -4.486449  15.638413   0.018934  -0.009149  -9.483667  -2.431947   0.232156  -0.392746  -0.000489  -0.000013  -3.155662  -2.180109   1.774082  11.595525  -0.010604  -0.003689  -6.742914   0.124331   1.209229   0.883452  -0.001202  -0.000386
